/* XPM */
static char * angel_xpm[] = {
"200 64 3 1",
" 	c None",
".	c #FFFFFF",
"+	c #000000",
"                                                                                                                                                                                                        ",
"                                                                                                                                                                                                        ",
"                                                                                                                                                                                                        ",
"                                                                                                                                                                                                        ",
"                                                                                                                                                                                                        ",
"                                                                                                                                                                                                        ",
"                                                                                                                                                                                                        ",
"                                                                                                                                                                                                        ",
"                                                                                                                                                                                                        ",
"        .....               .....               .....               .....               .....               .....                                                                                       ",
"       .     .             .     .             .     .             .     .             .     .             .     .                                                                                      ",
"       .     .             .     .             .     .             .     .             .     .             .     .                                                                                      ",
"        .....               .....               .....               .....               .....               .....                                                                                       ",
"                                                                                                                                                                                                        ",
"          +++++               +++++               +++++             +++++               +++++               +++++                                                                                       ",
"          +++++               +++++               +++++             +++++               +++++               +++++                                                                                       ",
"         ++++++              ++++++              ++++++             ++++++              ++++++              ++++++                                                                                      ",
"        +++ +++             +++ +++             +++ +++             +++ +++             +++ +++             +++ +++                                                                                     ",
"        ++++++              ++++++              ++++++               ++++++              ++++++              ++++++                                                                                     ",
"        +++++               +++++               +++++                 +++++               +++++               +++++                                                                                     ",
"         ++++                ++++                ++++                 ++++                ++++                ++++                                                                                      ",
"          +++                 +++                 +++                 +++                 +++                 +++                                                                                       ",
"         +++++               +++++               +++++               +++++               +++++               +++++                                                                                      ",
"        +++++++             +++++++             +++++++             +++++++             +++++++             +++++++                                                                                     ",
"      ++++++++++          ++++++++++          ++++++++++          ++++++++++          ++++++++++          ++++++++++                                                                                    ",
"      +++ +++ ++          +++ +++ ++          +++ +++ ++          +++ +++ ++          +++ +++ ++          +++ +++ ++                                                                                    ",
"      ++  +++  +          ++  +++  +          ++  +++  +          ++  +++  +          ++  +++  +          ++  +++  +                                                                                    ",
"          +++                 +++                 +++                 +++                 +++                 +++                                                                                       ",
"         +++++               +++++               +++++               +++++               +++++               +++++                                                                                      ",
"        +++ +++             +++ +++             +++ +++             +++ +++             +++ +++             +++ +++                                                                                     ",
"      ++++   +++          ++++   +++          ++++   +++          ++++   +++          ++++   +++          ++++   +++                                                                                    ",
"      +++     ++          +++     ++          +++     ++          +++     ++          +++     ++          +++     ++                                                                                    ",
"                                                                                                                                                                                                        ",
"                                                                                                                                                                                                        ",
"                                                                                                                                                                                                        ",
"                                                                                                                                                                                                        ",
"                                                                                                                                                                                                        ",
"                                                                                                                                                                                                        ",
"                                                                                                                                                                                                        ",
"                                                                                                                                                                                                        ",
"                                                                                                                                                                                                        ",
"                                                                                                                                                                                                        ",
"                                                                                                                                                                                                        ",
"                                                                                                                                                                                                        ",
"                                                                                                                                                                                                        ",
"                                                                                                                                                                                                        ",
"                                                                                                                                                                                                        ",
"                                                                                                                                                                                                        ",
"                                                                                                                                                                                                        ",
"                                                                                                                                                                                                        ",
"                                                                                                                                                                                                        ",
"                                                                                                                                                                                                        ",
"                                                                                                                                                                                                        ",
"                                                                                                                                                                                                        ",
"                                                                                                                                                                                                        ",
"                                                                                                                                                                                                        ",
"                                                                                                                                                                                                        ",
"                                                                                                                                                                                                        ",
"                                                                                                                                                                                                        ",
"                                                                                                                                                                                                        ",
"                                                                                                                                                                                                        ",
"                                                                                                                                                                                                        ",
"                                                                                                                                                                                                        ",
"                                                                                                                                                                                                        "};
