/* XPM */
static char * climber_xpm[] = {
"60 40 2 1",
" 	c None",
".	c #000000",
"                                                            ",
"                                                            ",
"                                                            ",
"...                                                         ",
"...                 ... .....                               ",
"...    ...          ... .....           ... .....           ",
"...   ....          ... ......          ... .....           ",
"...  .....          ... ... ..          ... ......          ",
"... ... ..          ..........          ... ... ..          ",
"..........            ... ....          ..........          ",
"  .......             ...  ...            ... ....          ",
"  ......              ...                 ...  ...          ",
"  ...                 ...                 ...               ",
"  ...                 ...                 ...               ",
"  ...               ....                  ...               ",
"....                ...                 ....                ",
"...                 ...                 ...                 ",
"...                 ...                 ...                 ",
"...                 ...                 ...                 ",
"                    ...                                     ",
"                                                            ",
"                                                            ",
"                                                            ",
"                  ..                                        ",
"                  ..            ..... ..                    ",
"          ....    ..            ..... ..            ..... ..",
"          .....   ..          ....... ..            ..... ..",
"          ......  ..          ... ... ..          ....... ..",
"          ... ... ..          ..........          ... ... ..",
"          ..........          ..... ...           ..........",
"            .......           ....  ...           ..... ... ",
"             ......                 ...           ....  ... ",
"                ...                 ...                 ... ",
"                ...                 ...                 ... ",
"                ...                  ...                ... ",
"                 ...                  ..                 ...",
"                  ..                  ..                  ..",
"                  ..                  ..                  ..",
"                  ..                  ..                  ..",
"                                      ..                    "};
