/* XPM */
static char * dancing_xpm[] = {
"200 20 2 1",
" 	c None",
".	c #000000",
"                                                                                          .....               .....             .....               .....                 .....             .....       ",
"                                                                                          .....               .....             .....               .....                 .....             .....       ",
"          .....             .....                 .....             .....               .......             .......             .......             .......             .......             .......     ",
"          .....             .....                 .....             .....               ... ...             ... ...             ... ...             ... ...             ... ...             ... ...     ",
"        .......             .......             .......             .......             .......             .......             .......             .......             .......             .......     ",
"        ... ...             ... ...             ... ...             ... ...             .....               .....                 .....               .....             .....                 .....     ",
"        .......             .......             .......             .......              ....                ....                 ....                ....               ....                 ....      ",
"        .....                 .....             .....                 .....               ...                 ...                 ...                 ...                 ...                 ...       ",
"         ....                 ....               ....                 ....             .........           .........           .........           .........             ......             ......      ",
"          ...                 ...                 ...                 ...              .........           .........           .........           .........            .......             .......     ",
"         ......             ......               ......             ......             .........           .........           .........           .........          ..........          ..........    ",
"        .......             .......             .......             .......               ...                 ...                 ...                 ...             ... ... ..          ... ... ..    ",
"      ..........          ..........          ..........          ..........              ...                 ...                 ...                 ...             ..  ...  .          ..  ...  .    ",
"      ... ... ..          ... ... ..          ... ... ..          ... ... ..              ...                 ...                 ...                 ...                 ...                 ...       ",
"      ..  ...  .          ..  ...  .          ..  ...  .          ..  ...  .              .....               .....               .....               .....               ....                ....      ",
"          ...                 ...                 ...                 ...                 .....               .....               .....               .....               .....               .....     ",
"        .......             .......             .......             .......             .......             .......             .......             .......             ........            ........    ",
"        ... ...             ... ...             ... ...             ... ...             .....               .....               .....               .....               ...   ..            ...   ..    ",
"      ....   ...          ....   ...          ....  ...           ....  ...             .....               .....               .....               .....               ...   ..            ...   ..    ",
"      ...     ..          ...     ..          ...   ...           ...   ...               ...                 ...                 ...                 ...               ...                 ...         "};
