/* XPM */
static char * explosion_xpm[] = {
"200 32 3 1",
" 	c None",
".	c #000000",
"+	c #EA0E5E",
"                                                                                                                                                                                                        ",
"                                                                                                                                                                                                        ",
"                                                                                                                                                                                                        ",
"                                                                                                                                                                                                        ",
"                                                                                                                                                                                                        ",
"                                                                                                                                                                                                        ",
"                                                                                                                                                                                                        ",
"                                                                                                                                                                                                        ",
"                                                                                                                                                                                                        ",
"                                                                                                                                ...                                                                     ",
"                                                                                                                                ...                                                                     ",
"                                                                                                                               .....                                                                    ",
"                                                                                                                              ... ...                                                                   ",
"                                                                                                             ...                ...                                                                     ",
"         .....            .....                                                                              ...         ..     ...      ..                                                             ",
"         .....            .....                                                                             .....        ..              ..                                                             ",
"        ......            ......                 ...                 ...                 ...               ... ...     ....              ....                                                           ",
"       ... ...            ... ...                ...                 ...                 ...             ..  ...  ..   ....              ....                                                           ",
"       ......              ......               .....               .....               .....            ..  ...  ..   ....   + + + +    ....                                                           ",
"       .....                .....              ... ...             ... ...             ... ...         ....       ....       + + + + +                                                                  ",
"     .......                .......            .......             .......             .......         ....       ....      + +++++++ +                                                                 ",
"     ... ...                ... ...            .......             .......             .......         .... + + + ....       +++   +++                                                                  ",
"     ........              ........          ...........         ...........         ....+.+....           + +++ +          + +     + +                                                                 ",
"       .......            .......            ...........         ...........         .....+.....             +++             ++     ++             + + + +                                              ",
"        .......          .......             ...........         ...........         ....+.+....           + +++ +          + +     + +           + + + + +                                             ",
"         ... ..          .. ...                  ...                 ...                 ...                +.+.+            +++   +++           + +++++++ +                                            ",
"         ...  .          .  ...                  ...                 ...                 ...                 ...            + +++++++ +           +++   +++                                             ",
"         ...                ...                  ...                 ...                 ...                 ...             + + + + +           + +++++++ +             + +                            ",
"        .....              .....                .....               .....               .....               .....             + + + +             + + + + +             + + +                           ",
"       ... ...            ... ...              ... ...             ... ...             ... ...             ... ...              ...                + + + +           + +++++++ +                        ",
"     ....   ...          ...   ....          ....   ...          ....   ...          ....   ...          ....   ...             ...                                   +++++++++                         ",
"     ...     ..          ..     ...          ...     ..          ...     ..          ...     ..          ...     ..            .....                                 + +++++++ +          +  ++++ +     "};
