/* XPM */
static char * floater_xpm[] = {
"40 32 47 1",
" 	c None",
".	c #EA0E5E",
"+	c #F70C56",
"@	c #7D20A2",
"#	c #1033E5",
"$	c #0235ED",
"%	c #1028F1",
"&	c #118F7E",
"*	c #11E023",
"=	c #11F709",
"-	c #11F60B",
";	c #118C81",
">	c #11EE13",
",	c #F80C56",
"'	c #108A84",
")	c #11EB17",
"!	c #ED0B5D",
"~	c #F0095D",
"{	c #FC0955",
"]	c #7D21A1",
"^	c #118984",
"/	c #0DEF14",
"(	c #0AE71F",
"_	c #0DE421",
":	c #F1085D",
"<	c #C52C64",
"[	c #B63866",
"}	c #CD2A5F",
"|	c #7D1CA5",
"1	c #098C85",
"2	c #3AB937",
"3	c #4AA049",
"4	c #3AB23E",
"5	c #82616F",
"6	c #7E7178",
"7	c #846C77",
"8	c #7D7179",
"9	c #975780",
"0	c #915F7B",
"a	c #98597F",
"b	c #7C7178",
"c	c #985781",
"d	c #413038",
"e	c #413037",
"f	c #000000",
"g	c #45333B",
"h	c #010101",
"                                        ",
"                                        ",
"                                        ",
"                                        ",
"                                        ",
"                                        ",
"   ..+.@#$#%#&*=       ..+.@#$#%#&*=    ",
"   ..+.@#$#%#&*-       ..+.@#$#%#&*-    ",
" ....+.@#$#%#;*>***  ....+.@#$#%#;*>*** ",
" ....,.@#$#%#'*)***  ....,.@#$#%#'*)*** ",
" ..!~{.]#$#%#^*/(_*  ..!~{.]#$#%#^*/(_* ",
" ....,.@#$#%#'*)***  ....,.@#$#%#'*)*** ",
" :.<[}.|#$#%#1*234*  :.<[}.|#$#%#1*234* ",
"   555         555     555         555  ",
"   678         90a     67b         c0a  ",
"   555         555     555         555  ",
"   dde    fff  gdd     ddg  fff    edd  ",
"   fff   fffff fff     fff fffff   fff  ",
"   fff  fffffh fff     fff hfffff  fff  ",
"   fff fff fff fff     fff fff fff fff  ",
"    fffffffffffff       fffffffffffff   ",
"     fffffff fff         fff fffffff    ",
"      fffffffff           fffffffff     ",
"       fffffff             fffffff      ",
"       fffffff             fffffff      ",
"       fffffff             fffffff      ",
"        fffff               fffff       ",
"         fff                 fff        ",
"        fffff               fffff       ",
"       fff fff             fff fff      ",
"       fff fff             fff fff      ",
"       fff fff             fff fff      "};
