/* XPM */
static char * juggle_xpm[] = {
"200 64 13 1",
" 	c None",
".	c #FFFA00",
"+	c #FFFF00",
"@	c #FDF800",
"#	c #000000",
"$	c #020200",
"%	c #767400",
"&	c #7E7B00",
"*	c #807D00",
"=	c #686600",
"-	c #8F8D00",
";	c #636100",
">	c #646200",
"                                                                                                                                                                                                        ",
"                                                                                                                                                                                                        ",
"                                                                                                                                                                                                        ",
"                                                                                                                                                                                                        ",
"                                                                                                                                                                                                        ",
"                                                                                                                                                                                                        ",
"                                                                                                                                                                                                        ",
"                                                                                                                                                                                                        ",
"                                                                                                                                                                                                        ",
"                                                                                                                                                                                                        ",
"                                                                                             ..              ...                                                                                        ",
"                                                                                             ..              ...                                                                                        ",
"                                                                                              .               +              ..@                                                                        ",
"                                                                                                                             ...                                                                        ",
"         #####               #####               #####               ##### +.             #$#                 ###            @.   ###                #####               #####               #####      ",
"         #####               #####               #####               ##### +.            #####               #####               #####               #####               #####               #####      ",
"        ######              ######              #####$              ######  .           ######              ######              #$####         ..   ######              ######              ######      ",
"       ### ###             ### ###             ### ###             ### ###             ### ###             ### ###             ### ###         ..+ ### ###             ### ###             ### ###      ",
"       ######              ######              ######   .          ######              ######              ######              ######          @.  ######          @.  ######              ######       ",
"       #####               #####               #####   ..          #####               #####               #####               #####               #####           ..+ #####               #####        ",
"        ####                ####    .           ####  #%.           ####  #             ####                ####             #######              #$####           +.&######                ####        ",
"         ###                 ###   ..            ### ###             ### ###             ###                 ###             ### ###             ### ###             ### ###                 ###        ",
"        #####   .           #######*.           #####$#             #######          ##########          ##########          ##########           #########           #$#######          ####=-;###     ",
"       ####### +.          #########           #######             #######           ##########          ##########            ########            ########            ########          ####-.-###     ",
"     ##########*.        ########$#          ########            ########            ##########          ##########             #######             #######             #######          ####>->###     ",
"     ### ### ###         ### ###             ### ###             ### ###                 ###                 ###                 ###                 ###                 ###                 ###        ",
"     ##  ###  #          ##  ###             ##  ###             ##  ###                 ###                 ###                 ###                 ###                 ###                 ###        ",
"         ###                 ###                 ###                 ###                 ###                 ###                 ###                 ###                 ###                 ###        ",
"        #####               #####               #####               #####               #####               #####               #####               #####               #####               #####       ",
"       ### ###             ### ###             ### ###             ### ###             ### ###             ### ###             ### ###             ### ###             ### ###             ### ###      ",
"     ####   ###          ####   ###          ####   ###          ####   ###          ####   ###          ####   ###          ####   ###           ###   ###           ###   ###          ####   ###     ",
"     ###     ###         ###     ###         ###     ###         ###     ###         ###     ##          ###     ##          ###     ##          ###     ##          ###     ##          ###     ##     ",
"                                                                                                                                                                                                        ",
"                                                                                                                                                                                                        ",
"                                                                                                                                                                                                        ",
"                                                                                                                                                                                                        ",
"                                                                                                                                                                                                        ",
"                                                                                                                                                                                                        ",
"                                                                                                                                                                                                        ",
"                                                                                                                                                                                                        ",
"                                                                                                                                                                                                        ",
"                                                                                                                                                                                                        ",
"                                                                                     ..                     ...                                                                                         ",
"                                                                                     ..                     ...                                                                                         ",
"                                                                                     .                       +                      @..                                                                 ",
"                                                                                                                                    ...                                                                 ",
"      #####               #####               #####            .+ #####                #$#                 ###                 ###   .@           #####               #####               #####         ",
"      #####               #####               #####            .+ #####               #####               #####               #####               #####               #####               #####         ",
"      ######              ######              $#####           .  ######              ######              ######              ####$#              ######   ..         ######              ######        ",
"      ### ###             ### ###             ### ###             ### ###             ### ###             ### ###             ### ###             ### ### +..         ### ###             ### ###       ",
"       ######              ######          .   ######              ######              ######              ######              ######              ######  .@          ######  .@          ######       ",
"        #####               #####          ..   #####               #####               #####               #####               #####               #####               ##### +..           #####       ",
"        ####           .    ####           .%#  ####             #  ####                ####                ####                #######             ####$#              ######&.+           ####        ",
"        ###            ..   ###             ### ###             ### ###                 ###                 ###                 ### ###             ### ###             ### ###             ###         ",
"   .   #####           .*#######             #$#####             #######             ##########          ##########          ##########          #########           #######$#           ###;-=####     ",
"   .+ #######           #########             #######             #######            ##########          ##########          ########            ########            ########            ###-.-####     ",
"   .*##########          #$########            ########            ########          ##########          ##########          #######             #######             #######             ###>->####     ",
"    ### ### ###             ### ###             ### ###             ### ###             ###                 ###                 ###                 ###                 ###                 ###         ",
"     #  ###  ##             ###  ##             ###  ##             ###  ##             ###                 ###                 ###                 ###                 ###                 ###         ",
"        ###                 ###                 ###                 ###                 ###                 ###                 ###                 ###                 ###                 ###         ",
"       #####               #####               #####               #####               #####               #####               #####               #####               #####               #####        ",
"      ### ###             ### ###             ### ###             ### ###             ### ###             ### ###             ### ###             ### ###             ### ###             ### ###       ",
"     ###   ####          ###   ####          ###   ####          ###   ####          ###   ####          ###   ####          ###   ####          ###   ###           ###   ###           ###   ####     ",
"    ###     ###         ###     ###         ###     ###         ###     ###          ##     ###          ##     ###          ##     ###          ##     ###          ##     ###          ##     ###     "};
