/* XPM */
static char * looking_xpm[] = {
"120 20 2 1",
" 	c None",
".	c #000000",
"                                                                                                                        ",
"                                                                                                                        ",
"          .....               .....               .....             .....               .....               .....       ",
"          .....               .....               .....             .....               .....               .....       ",
"         ......              ......              ......             ......              ......              ......      ",
"        ... ...             ... ...             ... ...             ... ...             ... ...             ... ...     ",
"        ......              ......              ......               ......              ......              ......     ",
"        .....               .....               .....                 .....               .....               .....     ",
"         ....                ....                ....                 ....                ....                ....      ",
"          ...                 ...                 ...                 ...                 ...                 ...       ",
"         .....               .....               .....               .....               .....               .....      ",
"        .......             .......             .......             .......             .......             .......     ",
"      ..........          ..........          ..........          ..........          ..........          ..........    ",
"      ... ... ..          ... ... ..          ... ... ..          ... ... ..          ... ... ..          ... ... ..    ",
"      ..  ...  .          ..  ...  .          ..  ...  .          ..  ...  .          ..  ...  .          ..  ...  .    ",
"          ...                 ...                 ...                 ...                 ...                 ...       ",
"         .....               .....               .....               .....               .....               .....      ",
"        ... ...             ... ...             ... ...             ... ...             ... ...             ... ...     ",
"      ....   ...          ....   ...          ....   ...          ....   ...          ....   ...          ....   ...    ",
"      ...     ..          ...     ..          ...     ..          ...     ..          ...     ..          ...     ..    "};
