/* XPM */
static char * sitting_xpm[] = {
"200 40 2 1",
" 	c None",
".	c #000000",
"                                                                                                                                                                                                        ",
"                                                                                                                                                                                                        ",
"                                                                                                                                                                                                        ",
"                                                                                                                                                                                                        ",
"                                                                                                                                                                                                        ",
"                                                                                                                                                                                                        ",
"                                                                                                                                                                                                        ",
"          .....               .....             .....               .....                                                                                                                               ",
"          .....               .....             .....               .....                                                                                                                               ",
"         ......              ......             ......              ......                                                                                                                              ",
"        ... ...             ... ...             ... ...             ... ...                                                                                                                             ",
"        ......              ......               ......              ......                                                                                                                             ",
"        .....               .....                 .....               .....                                                                                                                             ",
"         ....                ....                 ....                ....                                                                                                                              ",
"          ...                 ...                 ...                 ...                                                                                                                               ",
"      ..........          ..........           ..........          ..........                                                                                                                           ",
"      ..........          ..........           ..........          ..........                                                                                                                           ",
"      ..........          ..........           ..........          ..........                                                                                                                           ",
"      ... ... ..          ... ... ..           .. ... ...          .. ... ...                                                                                                                           ",
"      ..  ...  .          ..  ...  .           .  ...  ..          .  ...  ..                                                                                                                           ",
"                                                                                                                                                                                                        ",
"                                                                                                                                                                                                        ",
"                                                                                                                                                                                                        ",
"                                                                                                                                                                                                        ",
"                                                                                                                                                                                                        ",
"                                                                                                                                                                                                        ",
"                                                                                                                                                                                                        ",
"                                                                                                                                                                                                        ",
"                                                                                                                                                                                                        ",
"                                                                                                                                                                                                        ",
"                                                                                                                                                                                                        ",
"                                                                                                                                                                                                        ",
"                                                                                                                                                                                                        ",
"                                                                                                                                                                                                        ",
"                                                                                                                                                                                                        ",
"                                                                                                                                                                                                        ",
"                                                                                                                                                                                                        ",
"                                                                                                                                                                                                        ",
"                                                                                                                                                                                                        ",
"                                                                                                                                                                                                        "};
