/* XPM */
static char * splat_xpm[] = {
"100 20 2 1",
" 	c None",
".	c #000000",
"                                                                                                    ",
"                                                                                                    ",
"                                                                                                    ",
"                                                                                                    ",
"        .......                                                                                     ",
"        .......                                                                                     ",
"        .......                                                                                     ",
"        ... ...                                                                                     ",
"         .....                                                                                      ",
"          ...                                                                                       ",
"      ..........                                                                                    ",
"      ..........                                                                                    ",
"      ..........            .....             ...   ...             .....                           ",
"          ...               .....             ...   ...             .....                           ",
"          ...              .......             .     .           .   ...   .                        ",
"          ...             .........                             ...       ...                       ",
"         .....             .......        ..     ...     ..      .         .                        ",
"        ... ...             .....         ...   .....   ...                                         ",
"      ....   ...        .............     ..   .......   ..   ..     ...     ..                     ",
"      ...     ..        .....   .....         .........       ...   .....   ...          ...        "};
