/* XPM */
static char * tumble_xpm[] = {
"80 20 2 1",
" 	c None",
".	c #000000",
"                                                                                ",
"                                                                                ",
"                                                                                ",
"          .....               .....             .....               .....       ",
"          .....               .....             .....               .....       ",
"         ......              ......             ......              ......      ",
"        ... ...             ... ...             ... ...             ... ...     ",
"        ......              ......               ......              ......     ",
"        .....               .....                 .....               .....     ",
"         ....                ....                 ....                ....      ",
"          ...                 ...                 ...                 ...       ",
"     ..........            ..........         ..........            .........   ",
"     ............        ............         ............        ...........   ",
"        .........        ..........             ..........        .........     ",
"          ...                 ...                 ...                 ...       ",
"          ...                 ...                 ...                 ...       ",
"     ..   ...                 ...                 ...  ...            ...       ",
"      ........            ...........           ........          ...........   ",
"        ... ....          ..... .....          .... ...           ..... .....   ",
"               ..                            ...                                "};
