/* XPM */
static char * walkinglight_xpm[] = {
"80 40 6 1",
" 	c None",
".	c #000000",
"+	c #FFFA00",
"@	c #FDF800",
"#	c #FFFF00",
"$	c #807E00",
"                                                                                ",
"                                                                                ",
"                         .....                                 .....            ",
"                         .....                                 .....            ",
"                        ......                                 ......           ",
"           +++         ... ...                     +++         ... ...          ",
"          +++++        ......                     +++++         ......          ",
"         +++ +++       .....                     +++ +++         .....          ",
"        +++++++++++     ....                    +++++++++++      ....           ",
"       +++ +++ +++++     ...                   +++ +++ +++++     ...            ",
"      +++++++++++++@+   .....                 +++++++++++++@+   .....           ",
"      ++ +++ +++++ ++# .......                ++ +++ +++++ ++# .......          ",
"      +++++++++++++#+$.........               +++++++++++++#+$.........         ",
"       +++ +++ ++++# ... ... ..                +++ +++ ++++# ... ... ..         ",
"        +++++++++++   .  ...  .                 +++++++++++   .  ...  .         ",
"         +++ +++         ...                     +++ +++         ...            ",
"          +++++         .....                     +++++         .....           ",
"           +++         ... ...                     +++         ... ...          ",
"                      ...   ...                               ...   ...         ",
"                     ...     ..                              ...     ..         ",
"                                                                                ",
"                                                                                ",
"           .....                                     .....                      ",
"           .....                                     .....                      ",
"           ......                                   ......                      ",
"           ... ...         +++                     ... ...         +++          ",
"            ......        +++++                    ......         +++++         ",
"             .....       +++ +++                   .....         +++ +++        ",
"             ....     +++++++++++                   ....      +++++++++++       ",
"             ...     +++++ +++ +++                   ...     +++++ +++ +++      ",
"            .....   +@+++++++++++++                 .....   +@+++++++++++++     ",
"           ....... #++ +++++ +++ ++                ....... #++ +++++ +++ ++     ",
"          .........$+#+++++++++++++               .........$+#+++++++++++++     ",
"          .. ... ... #++++ +++ +++                .. ... ... #++++ +++ +++      ",
"          .  ...  .   +++++++++++                 .  ...  .   +++++++++++       ",
"             ...         +++ +++                     ...         +++ +++        ",
"            .....         +++++                     .....         +++++         ",
"           ... ...         +++                     ... ...         +++          ",
"          ...   ...                               ...   ...                     ",
"          ..     ...                              ..     ...                    "};
